<svg width="390" height="180" viewBox="0 0 390 180" fill="none" xmlns="http://www.w3.org/2000/svg">
<rect width="390" height="180" fill="#2F417C"/>
<path d="M48 20L48.4745 23.4725C48.6203 24.5401 49.4599 25.3797 50.5275 25.5255L54 26L50.5275 26.4745C49.4599 26.6203 48.6203 27.4599 48.4745 28.5275L48 32L47.5255 28.5275C47.3797 27.4599 46.5401 26.6203 45.4725 26.4745L42 26L45.4725 25.5255C46.5401 25.3797 47.3797 24.5401 47.5255 23.4725L48 20Z" fill="#00BEFF"/>
<path d="M83.5 34L84.0931 38.3407C84.2754 39.6752 85.3248 40.7246 86.6593 40.9069L91 41.5L86.6593 42.0931C85.3248 42.2754 84.2754 43.3248 84.0931 44.6593L83.5 49L82.9069 44.6593C82.7246 43.3248 81.6752 42.2754 80.3407 42.0931L76 41.5L80.3407 40.9069C81.6752 40.7246 82.7246 39.6752 82.9069 38.3407L83.5 34Z" fill="white"/>
<path d="M35 75L35.5535 79.0513C35.7237 80.2968 36.7032 81.2763 37.9487 81.4465L42 82L37.9487 82.5535C36.7032 82.7237 35.7237 83.7032 35.5535 84.9487L35 89L34.4465 84.9487C34.2763 83.7032 33.2968 82.7237 32.0513 82.5535L28 82L32.0513 81.4465C33.2968 81.2763 34.2763 80.2968 34.4465 79.0513L35 75Z" fill="#D9D9D9"/>
<path d="M54 115L54.3954 117.894C54.5169 118.783 55.2165 119.483 56.1062 119.605L59 120L56.1062 120.395C55.2165 120.517 54.5169 121.217 54.3954 122.106L54 125L53.6046 122.106C53.4831 121.217 52.7835 120.517 51.8938 120.395L49 120L51.8938 119.605C52.7835 119.483 53.4831 118.783 53.6046 117.894L54 115Z" fill="#FFD25D"/>
<path d="M205 10L205.395 12.8938C205.517 13.7835 206.217 14.4831 207.106 14.6046L210 15L207.106 15.3954C206.217 15.5169 205.517 16.2165 205.395 17.1062L205 20L204.605 17.1062C204.483 16.2165 203.783 15.5169 202.894 15.3954L200 15L202.894 14.6046C203.783 14.4831 204.483 13.7835 204.605 12.8938L205 10Z" fill="#D9D9D9"/>
<path d="M331 26L331.633 30.63C331.827 32.0535 332.946 33.1729 334.37 33.3674L339 34L334.37 34.6326C332.946 34.8271 331.827 35.9465 331.633 37.37L331 42L330.367 37.37C330.173 35.9465 329.054 34.8271 327.63 34.6326L323 34L327.63 33.3674C329.054 33.1729 330.173 32.0535 330.367 30.63L331 26Z" fill="#EFAFAF"/>
<path d="M342.5 69L342.777 71.0256C342.862 71.6484 343.352 72.1381 343.974 72.2232L346 72.5L343.974 72.7768C343.352 72.8619 342.862 73.3516 342.777 73.9744L342.5 76L342.223 73.9744C342.138 73.3516 341.648 72.8619 341.026 72.7768L339 72.5L341.026 72.2232C341.648 72.1381 342.138 71.6484 342.223 71.0256L342.5 69Z" fill="white"/>
<path d="M349 111L349.554 115.051C349.724 116.297 350.703 117.276 351.949 117.446L356 118L351.949 118.554C350.703 118.724 349.724 119.703 349.554 120.949L349 125L348.446 120.949C348.276 119.703 347.297 118.724 346.051 118.554L342 118L346.051 117.446C347.297 117.276 348.276 116.297 348.446 115.051L349 111Z" fill="#00BEFF"/>
</svg>
