<svg width="20" height="21" viewBox="0 0 20 21" fill="none" xmlns="http://www.w3.org/2000/svg">
<path d="M5.4956 2.5146C4.35223 2.40047 3.20444 2.68379 2.24541 3.31686C1.28639 3.94993 0.574684 4.8941 0.23009 5.99046C-0.114504 7.08683 -0.070949 8.26844 0.353424 9.33643C0.777797 10.4044 1.55708 11.2936 2.5601 11.8542L2.29705 14.5071L16.2259 15.8883L16.489 13.2354C17.6425 12.8624 18.6212 12.0831 19.2431 11.0423C19.865 10.0015 20.0876 8.77018 19.8696 7.57749C19.6516 6.3848 19.0078 5.31197 18.058 4.55862C17.1081 3.80527 15.917 3.42273 14.7062 3.48217C14.4932 2.56603 13.9987 1.73962 13.292 1.11901C12.5854 0.498403 11.7021 0.114763 10.7663 0.0219666C9.83042 -0.0708294 8.88902 0.13188 8.07425 0.601628C7.25948 1.07138 6.61228 1.78457 6.22353 2.64105C5.9843 2.58114 5.74101 2.53888 5.4956 2.5146ZM16.0759 17.3807L2.15103 15.9999C2.02314 17.3911 2.01829 18.1593 2.4692 18.7085C2.9944 19.3494 3.93162 19.4423 5.80803 19.6284L11.7775 20.2203C13.654 20.4064 14.5912 20.4993 15.232 19.974C15.782 19.5241 15.9281 18.7699 16.0759 17.3807Z" fill="white" fill-opacity="0.3"/>
</svg>
