<svg width="100" height="100" viewBox="0 0 100 100" fill="none" xmlns="http://www.w3.org/2000/svg">
<path d="M33.3333 12.5H20.8333C18.6232 12.5 16.5036 13.378 14.9408 14.9408C13.378 16.5036 12.5 18.6232 12.5 20.8333V33.3333M87.5 33.3333V20.8333C87.5 18.6232 86.622 16.5036 85.0592 14.9408C83.4964 13.378 81.3768 12.5 79.1667 12.5H66.6667M66.6667 87.5H79.1667C81.3768 87.5 83.4964 86.622 85.0592 85.0592C86.622 83.4964 87.5 81.3768 87.5 79.1667V66.6667M12.5 66.6667V79.1667C12.5 81.3768 13.378 83.4964 14.9408 85.0592C16.5036 86.622 18.6232 87.5 20.8333 87.5H33.3333" stroke="white" stroke-width="6.47059" stroke-linecap="round" stroke-linejoin="round"/>
<path d="M38.2407 33.5307C35.5371 33.5289 32.9153 34.4588 30.8168 36.1637C28.7183 37.8687 27.2711 40.2447 26.7188 42.8918C26.1665 45.5389 26.5428 48.2955 27.7844 50.6976C29.026 53.0997 31.0571 55.0007 33.5358 56.0806V62.3533H66.4703V56.0806C69.0846 54.9395 71.1954 52.8874 72.4098 50.306C73.6243 47.7247 73.8598 44.79 73.0724 42.048C72.285 39.3059 70.5285 36.9434 68.1296 35.4C65.7307 33.8566 62.8528 33.2374 60.0316 33.6578C59.3202 31.5621 57.9704 29.7419 56.1717 28.4529C54.373 27.1638 52.2158 26.4706 50.003 26.4706C47.7903 26.4706 45.6331 27.1638 43.8344 28.4529C42.0357 29.7419 40.6859 31.5621 39.9745 33.6578C39.4005 33.573 38.821 33.5306 38.2407 33.5307ZM66.4656 65.8826H33.5405C33.564 69.1695 33.7311 70.9695 34.9143 72.1506C36.2929 73.5294 38.5089 73.5294 42.9457 73.5294H57.0604C61.4972 73.5294 63.7132 73.5294 65.0917 72.1506C66.275 70.9695 66.4421 69.1695 66.4656 65.8826Z" fill="white"/>
</svg>
