<svg width="390" height="180" viewBox="0 0 390 180" fill="none" xmlns="http://www.w3.org/2000/svg">
<rect width="390" height="180" fill="#82885C"/>
<path d="M28.8771 23.1436C27.7337 23.0294 26.5859 23.3127 25.6269 23.9458C24.6679 24.5789 23.9562 25.5231 23.6116 26.6194C23.267 27.7158 23.3105 28.8974 23.7349 29.9654C24.1593 31.0334 24.9386 31.9225 25.9416 32.4832L25.6785 35.1361L39.6074 36.5172L39.8704 33.8643C41.0239 33.4914 42.0027 32.712 42.6246 31.6712C43.2465 30.6304 43.4691 29.3991 43.2511 28.2065C43.0331 27.0138 42.3893 25.9409 41.4395 25.1876C40.4896 24.4342 39.2985 24.0517 38.0877 24.1111C37.8747 23.195 37.3802 22.3686 36.6735 21.748C35.9669 21.1274 35.0836 20.7437 34.1477 20.6509C33.2119 20.5581 32.2705 20.7608 31.4557 21.2306C30.641 21.7003 29.9938 22.4135 29.605 23.27C29.3658 23.2101 29.1225 23.1678 28.8771 23.1436ZM39.4574 38.0097L25.5325 36.6289C25.4046 38.02 25.3998 38.7883 25.8507 39.3374C26.3759 39.9784 27.3131 40.0713 29.1895 40.2574L35.159 40.8493C37.0354 41.0353 37.9726 41.1283 38.6135 40.603C39.1635 40.1531 39.3096 39.3988 39.4574 38.0097Z" fill="white" fill-opacity="0.2"/>
<path d="M68.4972 51.1232C66.0126 51.5892 63.7644 52.8971 62.1311 54.8268C60.4978 56.7564 59.579 59.1899 59.5294 61.7178C59.4798 64.2456 60.3024 66.7134 61.8587 68.7059C63.4151 70.6983 65.6102 72.0937 68.0746 72.6572L69.1597 78.421L99.4219 72.7241L98.3368 66.9603C100.542 65.4596 102.126 63.2089 102.796 60.6269C103.465 58.0449 103.174 55.3076 101.976 52.9243C100.778 50.5409 98.7554 48.674 96.2842 47.6707C93.813 46.6675 91.0615 46.5964 88.5419 47.4706C87.5258 45.668 85.9706 44.229 84.0949 43.3557C82.2192 42.4824 80.1171 42.2186 78.0839 42.6013C76.0506 42.9841 74.1884 43.9942 72.7586 45.4898C71.3289 46.9854 70.4034 48.8914 70.1122 50.94C69.5701 50.9615 69.0303 51.0227 68.4972 51.1232ZM100.028 75.9678L69.7745 81.6631C70.3647 84.6793 70.8295 86.3043 72.1211 87.1849C73.6263 88.2133 75.6625 87.83 79.7392 87.0626L92.7087 84.621C96.7855 83.8536 98.8217 83.4702 99.8499 81.9649C100.733 80.6749 100.575 78.9921 100.028 75.9678Z" fill="white" fill-opacity="0.2"/>
<path d="M38.327 124.846C36.4142 125.243 34.6967 126.287 33.4634 127.802C32.2302 129.318 31.5566 131.211 31.5559 133.165C31.5552 135.119 32.2276 137.014 33.4598 138.53C34.692 140.046 36.4088 141.092 38.3213 141.49L39.2456 145.927L62.5426 141.075L61.6183 136.638C63.2995 135.445 64.4902 133.683 64.969 131.678C65.4478 129.673 65.1819 127.562 64.2209 125.739C63.26 123.915 61.6693 122.503 59.745 121.764C57.8207 121.026 55.6937 121.012 53.76 121.725C52.948 120.347 51.725 119.259 50.2627 118.612C48.8004 117.965 47.1724 117.793 45.6071 118.119C44.0418 118.445 42.618 119.253 41.5356 120.43C40.4532 121.607 39.7666 123.093 39.5721 124.68C39.1536 124.705 38.7374 124.76 38.327 124.846ZM63.0592 143.572L39.7689 148.423C40.2698 150.745 40.6532 151.994 41.6642 152.655C42.8425 153.427 44.4101 153.1 47.5485 152.447L57.533 150.367C60.6714 149.713 62.2389 149.387 63.0109 148.208C63.6739 147.199 63.5269 145.901 63.0592 143.572Z" fill="white" fill-opacity="0.2"/>
<path d="M225.558 21.8576C222.451 21.0228 219.151 21.2842 216.213 22.5976C213.276 23.911 210.881 26.1964 209.431 29.069C207.98 31.9416 207.564 35.2261 208.251 38.3696C208.939 41.5131 210.688 44.3237 213.204 46.3284L211.272 53.5386L249.129 63.6823L251.061 56.4721C254.417 55.9657 257.476 54.257 259.667 51.6639C261.858 49.0708 263.032 45.77 262.972 42.3757C262.911 38.9814 261.62 35.7248 259.338 33.2119C257.056 30.6989 253.938 29.1009 250.566 28.7151C250.394 26.0871 249.403 23.5792 247.732 21.5435C246.062 19.5078 243.796 18.0465 241.252 17.365C238.709 16.6835 236.016 16.8159 233.551 17.7436C231.087 18.6714 228.975 20.3478 227.511 22.5376C226.878 22.2634 226.225 22.0361 225.558 21.8576ZM248.037 67.7376L210.191 57.5969C209.206 61.3823 208.843 63.5027 209.839 65.2248C210.999 67.2342 213.547 67.9167 218.646 69.2832L234.871 73.6305C239.971 74.997 242.518 75.6795 244.527 74.5193C246.251 73.5261 246.997 71.5086 248.037 67.7376Z" fill="white" fill-opacity="0.2"/>
<path d="M342.5 20.8713C340.899 20.7115 339.292 21.1082 337.95 21.9945C336.607 22.8808 335.611 24.2026 335.128 25.7375C334.646 27.2724 334.707 28.9267 335.301 30.4219C335.895 31.917 336.986 33.1618 338.39 33.9468L338.022 37.6608L357.522 39.5944L357.89 35.8804C359.505 35.3583 360.876 34.2671 361.746 32.81C362.617 31.3529 362.929 29.6291 362.623 27.9593C362.318 26.2896 361.417 24.7876 360.087 23.7329C358.757 22.6782 357.09 22.1427 355.395 22.2259C355.096 20.9433 354.404 19.7863 353.415 18.9175C352.425 18.0486 351.189 17.5115 349.879 17.3816C348.569 17.2517 347.251 17.5355 346.11 18.1931C344.969 18.8508 344.063 19.8492 343.519 21.0483C343.184 20.9644 342.843 20.9053 342.5 20.8713ZM357.312 41.6838L337.817 39.7508C337.638 41.6984 337.632 42.7739 338.263 43.5427C338.998 44.44 340.31 44.5701 342.937 44.8306L351.295 45.6593C353.921 45.9198 355.234 46.0499 356.131 45.3145C356.901 44.6846 357.105 43.6287 357.312 41.6838Z" fill="white" fill-opacity="0.2"/>
<path d="M351.386 117.319C349.161 117.586 347.096 118.612 345.539 120.223C343.982 121.834 343.027 123.933 342.836 126.166C342.645 128.399 343.228 130.629 344.489 132.482C345.749 134.335 347.609 135.698 349.756 136.34L350.379 141.501L377.477 138.228L376.853 133.067C378.891 131.868 380.423 129.97 381.166 127.725C381.909 125.481 381.811 123.043 380.891 120.865C379.97 118.687 378.29 116.918 376.163 115.886C374.036 114.855 371.607 114.632 369.327 115.258C368.534 113.604 367.242 112.241 365.634 111.359C364.026 110.477 362.182 110.121 360.362 110.341C358.541 110.561 356.835 111.346 355.483 112.585C354.132 113.824 353.202 115.456 352.825 117.251C352.344 117.238 351.863 117.261 351.386 117.319ZM377.823 141.132L350.734 144.404C351.08 147.106 351.396 148.571 352.487 149.425C353.758 150.422 355.581 150.202 359.232 149.761L370.845 148.358C374.495 147.917 376.319 147.697 377.316 146.426C378.172 145.336 378.131 143.839 377.823 141.132Z" fill="white" fill-opacity="0.2"/>
</svg>
