<svg width="100" height="100" viewBox="0 0 100 100" fill="none" xmlns="http://www.w3.org/2000/svg">
<path opacity="0.5" d="M47.1864 7.60351C48.1529 4.99166 51.8471 4.99166 52.8136 7.60352L58.3982 22.6957C61.6393 31.4548 68.5452 38.3607 77.3043 41.6018L92.3965 47.1864C95.0083 48.1529 95.0083 51.8471 92.3965 52.8136L77.3043 58.3982C68.5452 61.6393 61.6393 68.5452 58.3982 77.3043L52.8136 92.3965C51.8471 95.0083 48.1529 95.0083 47.1864 92.3965L41.6018 77.3043C38.3607 68.5452 31.4548 61.6393 22.6957 58.3982L7.60351 52.8136C4.99166 51.8471 4.99166 48.1529 7.60352 47.1864L22.6957 41.6018C31.4548 38.3607 38.3607 31.4548 41.6018 22.6957L47.1864 7.60351Z" fill="url(#paint0_linear_139_1030)"/>
<path opacity="0.5" d="M82.6559 4.28106C82.9459 3.4975 84.0541 3.4975 84.3441 4.28105L85.7675 8.12785C86.6426 10.4928 88.5072 12.3574 90.8722 13.2325L94.7189 14.6559C95.5025 14.9459 95.5025 16.0541 94.7189 16.3441L90.8722 17.7675C88.5072 18.6426 86.6426 20.5072 85.7675 22.8722L84.3441 26.7189C84.0541 27.5025 82.9459 27.5025 82.6559 26.7189L81.2325 22.8722C80.3574 20.5072 78.4928 18.6426 76.1278 17.7675L72.2811 16.3441C71.4975 16.0541 71.4975 14.9459 72.2811 14.6559L76.1278 13.2325C78.4928 12.3574 80.3574 10.4928 81.2325 8.12785L82.6559 4.28106Z" fill="url(#paint1_linear_139_1030)"/>
<defs>
<linearGradient id="paint0_linear_139_1030" x1="113.5" y1="17.5" x2="24" y2="39" gradientUnits="userSpaceOnUse">
<stop stop-color="white"/>
<stop offset="1" stop-color="#0011A6"/>
</linearGradient>
<linearGradient id="paint1_linear_139_1030" x1="114" y1="-4.5" x2="83.5" y2="29" gradientUnits="userSpaceOnUse">
<stop stop-color="white"/>
<stop offset="1" stop-color="#0F1762"/>
</linearGradient>
</defs>
</svg>
