<svg width="183" height="64" viewBox="0 0 183 64" fill="none" xmlns="http://www.w3.org/2000/svg">
<path d="M8.28125 26.2656L0.671875 11.0469H11.8125L14.2969 16.1562L16.8594 11.0469H26.1719L18.4062 26.2656V36H8.28125V26.2656ZM37.9531 25.625C37.9531 26.9583 38.0677 28 38.2969 28.75C38.5365 29.4896 38.8438 30.0104 39.2188 30.3125C39.6042 30.6042 40.0104 30.75 40.4375 30.75C41.0625 30.75 41.4688 30.5625 41.6562 30.1875C41.8542 29.8021 41.9531 29.3073 41.9531 28.7031V16.5781H51.2344V36H46.1094L43.875 32.9531C43.0104 34.1406 41.8385 35.0677 40.3594 35.7344C38.8906 36.401 37.3698 36.7344 35.7969 36.7344C34.4948 36.7344 33.2969 36.4635 32.2031 35.9219C31.1094 35.3698 30.2344 34.5781 29.5781 33.5469C28.9323 32.5156 28.6094 31.276 28.6094 29.8281V16.5781H37.9531V25.625ZM67.625 25.9844C67.625 24.5885 67.3854 23.5521 66.9062 22.875C66.4271 22.1979 65.9635 21.8594 65.5156 21.8594C65.0469 21.8594 64.7188 22.0573 64.5312 22.4531C64.3542 22.849 64.2656 23.3229 64.2656 23.875V36H54.9844V16.5781H60.1094L62.3438 19.6094C62.875 18.8177 63.5469 18.1458 64.3594 17.5938C65.1823 17.0312 66.0729 16.599 67.0312 16.2969C68 15.9948 68.9635 15.8438 69.9219 15.8438C71.1615 15.8438 72.2917 16.1406 73.3125 16.7344C74.3333 17.3177 75.125 18.151 75.6875 19.2344C76.5312 18.1615 77.526 17.3281 78.6719 16.7344C79.8177 16.1406 81 15.8438 82.2188 15.8438C83.4167 15.8438 84.5104 16.1198 85.5 16.6719C86.4896 17.2135 87.2812 18 87.875 19.0312C88.4792 20.0625 88.7812 21.3021 88.7812 22.75V36H79.7188V25.9844C79.7188 24.5885 79.5 23.5521 79.0625 22.875C78.625 22.1979 78.1823 21.8594 77.7344 21.8594C77.3073 21.8594 76.9896 22.0365 76.7812 22.3906C76.5833 22.7344 76.4844 23.151 76.4844 23.6406V36H67.625V25.9844ZM105.062 25.9844C105.062 24.5885 104.823 23.5521 104.344 22.875C103.865 22.1979 103.401 21.8594 102.953 21.8594C102.484 21.8594 102.156 22.0573 101.969 22.4531C101.792 22.849 101.703 23.3229 101.703 23.875V36H92.4219V16.5781H97.5469L99.7812 19.6094C100.312 18.8177 100.984 18.1458 101.797 17.5938C102.62 17.0312 103.51 16.599 104.469 16.2969C105.438 15.9948 106.401 15.8438 107.359 15.8438C108.599 15.8438 109.729 16.1406 110.75 16.7344C111.771 17.3177 112.562 18.151 113.125 19.2344C113.969 18.1615 114.964 17.3281 116.109 16.7344C117.255 16.1406 118.438 15.8438 119.656 15.8438C120.854 15.8438 121.948 16.1198 122.938 16.6719C123.927 17.2135 124.719 18 125.312 19.0312C125.917 20.0625 126.219 21.3021 126.219 22.75V36H117.156V25.9844C117.156 24.5885 116.938 23.5521 116.5 22.875C116.062 22.1979 115.62 21.8594 115.172 21.8594C114.745 21.8594 114.427 22.0365 114.219 22.3906C114.021 22.7344 113.922 23.151 113.922 23.6406V36H105.062V25.9844ZM136.484 36L148.891 12.3125C149.193 11.7396 149.661 11.2969 150.297 10.9844C150.932 10.6615 151.594 10.5 152.281 10.5C152.896 10.5 153.495 10.6406 154.078 10.9219C154.672 11.2031 155.13 11.6354 155.453 12.2188L168.766 36H156.094L155.109 33.5312H148.359L147.516 36H136.484ZM149.125 28.5781H154.172L151.781 21.8281L149.125 28.5781ZM180.859 36H171.141V11.0469H180.859V36Z" fill="url(#paint0_linear_311_1122)"/>
<path d="M7.08 50.66L4.32 55.976V59H2.952V55.976L0.18 50.66H1.704L3.636 54.752L5.568 50.66H7.08ZM11.0336 59.108C10.4096 59.108 9.84563 58.968 9.34163 58.688C8.83763 58.4 8.44163 58 8.15363 57.488C7.86563 56.968 7.72163 56.368 7.72163 55.688C7.72163 55.016 7.86963 54.42 8.16563 53.9C8.46163 53.38 8.86563 52.98 9.37763 52.7C9.88963 52.42 10.4616 52.28 11.0936 52.28C11.7256 52.28 12.2976 52.42 12.8096 52.7C13.3216 52.98 13.7256 53.38 14.0216 53.9C14.3176 54.42 14.4656 55.016 14.4656 55.688C14.4656 56.36 14.3136 56.956 14.0096 57.476C13.7056 57.996 13.2896 58.4 12.7616 58.688C12.2416 58.968 11.6656 59.108 11.0336 59.108ZM11.0336 57.92C11.3856 57.92 11.7136 57.836 12.0176 57.668C12.3296 57.5 12.5816 57.248 12.7736 56.912C12.9656 56.576 13.0616 56.168 13.0616 55.688C13.0616 55.208 12.9696 54.804 12.7856 54.476C12.6016 54.14 12.3576 53.888 12.0536 53.72C11.7496 53.552 11.4216 53.468 11.0696 53.468C10.7176 53.468 10.3896 53.552 10.0856 53.72C9.78963 53.888 9.55363 54.14 9.37763 54.476C9.20163 54.804 9.11363 55.208 9.11363 55.688C9.11363 56.4 9.29363 56.952 9.65363 57.344C10.0216 57.728 10.4816 57.92 11.0336 57.92ZM21.806 52.388V59H20.438V58.22C20.222 58.492 19.938 58.708 19.586 58.868C19.242 59.02 18.874 59.096 18.482 59.096C17.962 59.096 17.494 58.988 17.078 58.772C16.67 58.556 16.346 58.236 16.106 57.812C15.874 57.388 15.758 56.876 15.758 56.276V52.388H17.114V56.072C17.114 56.664 17.262 57.12 17.558 57.44C17.854 57.752 18.258 57.908 18.77 57.908C19.282 57.908 19.686 57.752 19.982 57.44C20.286 57.12 20.438 56.664 20.438 56.072V52.388H21.806ZM24.9789 53.348C25.1789 53.012 25.4429 52.752 25.7709 52.568C26.1069 52.376 26.5029 52.28 26.9589 52.28V53.696H26.6109C26.0749 53.696 25.6669 53.832 25.3869 54.104C25.1149 54.376 24.9789 54.848 24.9789 55.52V59H23.6109V52.388H24.9789V53.348ZM32.7016 53.36C32.9336 53.056 33.2496 52.8 33.6496 52.592C34.0496 52.384 34.5016 52.28 35.0056 52.28C35.5816 52.28 36.1056 52.424 36.5776 52.712C37.0576 52.992 37.4336 53.388 37.7056 53.9C37.9776 54.412 38.1136 55 38.1136 55.664C38.1136 56.328 37.9776 56.924 37.7056 57.452C37.4336 57.972 37.0576 58.38 36.5776 58.676C36.1056 58.964 35.5816 59.108 35.0056 59.108C34.5016 59.108 34.0536 59.008 33.6616 58.808C33.2696 58.6 32.9496 58.344 32.7016 58.04V62.144H31.3336V52.388H32.7016V53.36ZM36.7216 55.664C36.7216 55.208 36.6256 54.816 36.4336 54.488C36.2496 54.152 36.0016 53.9 35.6896 53.732C35.3856 53.556 35.0576 53.468 34.7056 53.468C34.3616 53.468 34.0336 53.556 33.7216 53.732C33.4176 53.908 33.1696 54.164 32.9776 54.5C32.7936 54.836 32.7016 55.232 32.7016 55.688C32.7016 56.144 32.7936 56.544 32.9776 56.888C33.1696 57.224 33.4176 57.48 33.7216 57.656C34.0336 57.832 34.3616 57.92 34.7056 57.92C35.0576 57.92 35.3856 57.832 35.6896 57.656C36.0016 57.472 36.2496 57.208 36.4336 56.864C36.6256 56.52 36.7216 56.12 36.7216 55.664ZM42.3344 59.108C41.7104 59.108 41.1464 58.968 40.6424 58.688C40.1384 58.4 39.7424 58 39.4544 57.488C39.1664 56.968 39.0224 56.368 39.0224 55.688C39.0224 55.016 39.1704 54.42 39.4664 53.9C39.7624 53.38 40.1664 52.98 40.6784 52.7C41.1904 52.42 41.7624 52.28 42.3944 52.28C43.0264 52.28 43.5984 52.42 44.1104 52.7C44.6224 52.98 45.0264 53.38 45.3224 53.9C45.6184 54.42 45.7664 55.016 45.7664 55.688C45.7664 56.36 45.6144 56.956 45.3104 57.476C45.0064 57.996 44.5904 58.4 44.0624 58.688C43.5424 58.968 42.9664 59.108 42.3344 59.108ZM42.3344 57.92C42.6864 57.92 43.0144 57.836 43.3184 57.668C43.6304 57.5 43.8824 57.248 44.0744 56.912C44.2664 56.576 44.3624 56.168 44.3624 55.688C44.3624 55.208 44.2704 54.804 44.0864 54.476C43.9024 54.14 43.6584 53.888 43.3544 53.72C43.0504 53.552 42.7224 53.468 42.3704 53.468C42.0184 53.468 41.6904 53.552 41.3864 53.72C41.0904 53.888 40.8544 54.14 40.6784 54.476C40.5024 54.804 40.4144 55.208 40.4144 55.688C40.4144 56.4 40.5944 56.952 40.9544 57.344C41.3224 57.728 41.7824 57.92 42.3344 57.92ZM46.6628 55.688C46.6628 55.008 46.7988 54.412 47.0708 53.9C47.3508 53.38 47.7348 52.98 48.2228 52.7C48.7108 52.42 49.2708 52.28 49.9028 52.28C50.7028 52.28 51.3628 52.472 51.8828 52.856C52.4108 53.232 52.7668 53.772 52.9508 54.476H51.4748C51.3548 54.148 51.1628 53.892 50.8988 53.708C50.6348 53.524 50.3028 53.432 49.9028 53.432C49.3428 53.432 48.8948 53.632 48.5588 54.032C48.2308 54.424 48.0668 54.976 48.0668 55.688C48.0668 56.4 48.2308 56.956 48.5588 57.356C48.8948 57.756 49.3428 57.956 49.9028 57.956C50.6948 57.956 51.2188 57.608 51.4748 56.912H52.9508C52.7588 57.584 52.3988 58.12 51.8708 58.52C51.3428 58.912 50.6868 59.108 49.9028 59.108C49.2708 59.108 48.7108 58.968 48.2228 58.688C47.7348 58.4 47.3508 58 47.0708 57.488C46.7988 56.968 46.6628 56.368 46.6628 55.688ZM56.9301 55.7L59.9781 59H58.1301L55.6821 56.156V59H54.3141V50.12H55.6821V55.28L58.0821 52.388H59.9781L56.9301 55.7ZM67.0186 55.532C67.0186 55.78 67.0026 56.004 66.9706 56.204H61.9186C61.9586 56.732 62.1546 57.156 62.5066 57.476C62.8586 57.796 63.2906 57.956 63.8026 57.956C64.5386 57.956 65.0586 57.648 65.3626 57.032H66.8386C66.6386 57.64 66.2746 58.14 65.7466 58.532C65.2266 58.916 64.5786 59.108 63.8026 59.108C63.1706 59.108 62.6026 58.968 62.0986 58.688C61.6026 58.4 61.2106 58 60.9226 57.488C60.6426 56.968 60.5026 56.368 60.5026 55.688C60.5026 55.008 60.6386 54.412 60.9106 53.9C61.1906 53.38 61.5786 52.98 62.0746 52.7C62.5786 52.42 63.1546 52.28 63.8026 52.28C64.4266 52.28 64.9826 52.416 65.4706 52.688C65.9586 52.96 66.3386 53.344 66.6106 53.84C66.8826 54.328 67.0186 54.892 67.0186 55.532ZM65.5906 55.1C65.5826 54.596 65.4026 54.192 65.0506 53.888C64.6986 53.584 64.2626 53.432 63.7426 53.432C63.2706 53.432 62.8666 53.584 62.5306 53.888C62.1946 54.184 61.9946 54.588 61.9306 55.1H65.5906ZM69.9608 53.504V57.164C69.9608 57.412 70.0168 57.592 70.1288 57.704C70.2488 57.808 70.4488 57.86 70.7288 57.86H71.5688V59H70.4888C69.8728 59 69.4008 58.856 69.0728 58.568C68.7448 58.28 68.5808 57.812 68.5808 57.164V53.504H67.8008V52.388H68.5808V50.744H69.9608V52.388H71.5688V53.504H69.9608ZM75.4909 55.688C75.4909 55.008 75.6269 54.412 75.8989 53.9C76.1789 53.38 76.5629 52.98 77.0509 52.7C77.5389 52.42 78.0989 52.28 78.7309 52.28C79.5309 52.28 80.1909 52.472 80.7109 52.856C81.2389 53.232 81.5949 53.772 81.7789 54.476H80.3029C80.1829 54.148 79.9909 53.892 79.7269 53.708C79.4629 53.524 79.1309 53.432 78.7309 53.432C78.1709 53.432 77.7229 53.632 77.3869 54.032C77.0589 54.424 76.8949 54.976 76.8949 55.688C76.8949 56.4 77.0589 56.956 77.3869 57.356C77.7229 57.756 78.1709 57.956 78.7309 57.956C79.5229 57.956 80.0469 57.608 80.3029 56.912H81.7789C81.5869 57.584 81.2269 58.12 80.6989 58.52C80.1709 58.912 79.5149 59.108 78.7309 59.108C78.0989 59.108 77.5389 58.968 77.0509 58.688C76.5629 58.4 76.1789 58 75.8989 57.488C75.6269 56.968 75.4909 56.368 75.4909 55.688ZM86.0102 59.108C85.3862 59.108 84.8222 58.968 84.3182 58.688C83.8142 58.4 83.4182 58 83.1302 57.488C82.8422 56.968 82.6982 56.368 82.6982 55.688C82.6982 55.016 82.8462 54.42 83.1422 53.9C83.4382 53.38 83.8422 52.98 84.3542 52.7C84.8662 52.42 85.4382 52.28 86.0702 52.28C86.7022 52.28 87.2742 52.42 87.7862 52.7C88.2982 52.98 88.7022 53.38 88.9982 53.9C89.2942 54.42 89.4422 55.016 89.4422 55.688C89.4422 56.36 89.2902 56.956 88.9862 57.476C88.6822 57.996 88.2662 58.4 87.7382 58.688C87.2182 58.968 86.6422 59.108 86.0102 59.108ZM86.0102 57.92C86.3622 57.92 86.6902 57.836 86.9942 57.668C87.3062 57.5 87.5582 57.248 87.7502 56.912C87.9422 56.576 88.0382 56.168 88.0382 55.688C88.0382 55.208 87.9462 54.804 87.7622 54.476C87.5782 54.14 87.3342 53.888 87.0302 53.72C86.7262 53.552 86.3982 53.468 86.0462 53.468C85.6942 53.468 85.3662 53.552 85.0622 53.72C84.7662 53.888 84.5302 54.14 84.3542 54.476C84.1782 54.804 84.0902 55.208 84.0902 55.688C84.0902 56.4 84.2702 56.952 84.6302 57.344C84.9982 57.728 85.4582 57.92 86.0102 57.92ZM93.6625 59.108C93.0385 59.108 92.4745 58.968 91.9705 58.688C91.4665 58.4 91.0705 58 90.7825 57.488C90.4945 56.968 90.3505 56.368 90.3505 55.688C90.3505 55.016 90.4985 54.42 90.7945 53.9C91.0905 53.38 91.4945 52.98 92.0065 52.7C92.5185 52.42 93.0905 52.28 93.7225 52.28C94.3545 52.28 94.9265 52.42 95.4385 52.7C95.9505 52.98 96.3545 53.38 96.6505 53.9C96.9465 54.42 97.0945 55.016 97.0945 55.688C97.0945 56.36 96.9425 56.956 96.6385 57.476C96.3345 57.996 95.9185 58.4 95.3905 58.688C94.8705 58.968 94.2945 59.108 93.6625 59.108ZM93.6625 57.92C94.0145 57.92 94.3425 57.836 94.6465 57.668C94.9585 57.5 95.2105 57.248 95.4025 56.912C95.5945 56.576 95.6905 56.168 95.6905 55.688C95.6905 55.208 95.5985 54.804 95.4145 54.476C95.2305 54.14 94.9865 53.888 94.6825 53.72C94.3785 53.552 94.0505 53.468 93.6985 53.468C93.3465 53.468 93.0185 53.552 92.7145 53.72C92.4185 53.888 92.1825 54.14 92.0065 54.476C91.8305 54.804 91.7425 55.208 91.7425 55.688C91.7425 56.4 91.9225 56.952 92.2825 57.344C92.6505 57.728 93.1105 57.92 93.6625 57.92ZM101.063 55.7L104.111 59H102.263L99.8149 56.156V59H98.4469V50.12H99.8149V55.28L102.215 52.388H104.111L101.063 55.7ZM105.787 51.512C105.539 51.512 105.331 51.428 105.163 51.26C104.995 51.092 104.911 50.884 104.911 50.636C104.911 50.388 104.995 50.18 105.163 50.012C105.331 49.844 105.539 49.76 105.787 49.76C106.027 49.76 106.231 49.844 106.399 50.012C106.567 50.18 106.651 50.388 106.651 50.636C106.651 50.884 106.567 51.092 106.399 51.26C106.231 51.428 106.027 51.512 105.787 51.512ZM106.459 52.388V59H105.091V52.388H106.459ZM111.591 52.28C112.111 52.28 112.575 52.388 112.983 52.604C113.399 52.82 113.723 53.14 113.955 53.564C114.187 53.988 114.303 54.5 114.303 55.1V59H112.947V55.304C112.947 54.712 112.799 54.26 112.503 53.948C112.207 53.628 111.803 53.468 111.291 53.468C110.779 53.468 110.371 53.628 110.067 53.948C109.771 54.26 109.623 54.712 109.623 55.304V59H108.255V52.388H109.623V53.144C109.847 52.872 110.131 52.66 110.475 52.508C110.827 52.356 111.199 52.28 111.591 52.28ZM118.712 52.28C119.224 52.28 119.676 52.384 120.068 52.592C120.468 52.792 120.78 53.044 121.004 53.348V52.388H122.384V59.108C122.384 59.716 122.256 60.256 122 60.728C121.744 61.208 121.372 61.584 120.884 61.856C120.404 62.128 119.828 62.264 119.156 62.264C118.26 62.264 117.516 62.052 116.924 61.628C116.332 61.212 115.996 60.644 115.916 59.924H117.272C117.376 60.268 117.596 60.544 117.932 60.752C118.276 60.968 118.684 61.076 119.156 61.076C119.708 61.076 120.152 60.908 120.488 60.572C120.832 60.236 121.004 59.748 121.004 59.108V58.004C120.772 58.316 120.456 58.58 120.056 58.796C119.664 59.004 119.216 59.108 118.712 59.108C118.136 59.108 117.608 58.964 117.128 58.676C116.656 58.38 116.28 57.972 116 57.452C115.728 56.924 115.592 56.328 115.592 55.664C115.592 55 115.728 54.412 116 53.9C116.28 53.388 116.656 52.992 117.128 52.712C117.608 52.424 118.136 52.28 118.712 52.28ZM121.004 55.688C121.004 55.232 120.908 54.836 120.716 54.5C120.532 54.164 120.288 53.908 119.984 53.732C119.68 53.556 119.352 53.468 119 53.468C118.648 53.468 118.32 53.556 118.016 53.732C117.712 53.9 117.464 54.152 117.272 54.488C117.088 54.816 116.996 55.208 116.996 55.664C116.996 56.12 117.088 56.52 117.272 56.864C117.464 57.208 117.712 57.472 118.016 57.656C118.328 57.832 118.656 57.92 119 57.92C119.352 57.92 119.68 57.832 119.984 57.656C120.288 57.48 120.532 57.224 120.716 56.888C120.908 56.544 121.004 56.144 121.004 55.688ZM132.326 57.296H128.834L128.234 59H126.806L129.794 50.648H131.378L134.366 59H132.926L132.326 57.296ZM131.942 56.18L130.586 52.304L129.218 56.18H131.942ZM138.066 59.108C137.546 59.108 137.078 59.016 136.662 58.832C136.254 58.64 135.93 58.384 135.69 58.064C135.45 57.736 135.322 57.372 135.306 56.972H136.722C136.746 57.252 136.878 57.488 137.118 57.68C137.366 57.864 137.674 57.956 138.042 57.956C138.426 57.956 138.722 57.884 138.93 57.74C139.146 57.588 139.254 57.396 139.254 57.164C139.254 56.916 139.134 56.732 138.894 56.612C138.662 56.492 138.29 56.36 137.778 56.216C137.282 56.08 136.878 55.948 136.566 55.82C136.254 55.692 135.982 55.496 135.75 55.232C135.526 54.968 135.414 54.62 135.414 54.188C135.414 53.836 135.518 53.516 135.726 53.228C135.934 52.932 136.23 52.7 136.614 52.532C137.006 52.364 137.454 52.28 137.958 52.28C138.71 52.28 139.314 52.472 139.77 52.856C140.234 53.232 140.482 53.748 140.514 54.404H139.146C139.122 54.108 139.002 53.872 138.786 53.696C138.57 53.52 138.278 53.432 137.91 53.432C137.55 53.432 137.274 53.5 137.082 53.636C136.89 53.772 136.794 53.952 136.794 54.176C136.794 54.352 136.858 54.5 136.986 54.62C137.114 54.74 137.27 54.836 137.454 54.908C137.638 54.972 137.91 55.056 138.27 55.16C138.75 55.288 139.142 55.42 139.446 55.556C139.758 55.684 140.026 55.876 140.25 56.132C140.474 56.388 140.59 56.728 140.598 57.152C140.598 57.528 140.494 57.864 140.286 58.16C140.078 58.456 139.782 58.688 139.398 58.856C139.022 59.024 138.578 59.108 138.066 59.108ZM144.476 59.108C143.956 59.108 143.488 59.016 143.072 58.832C142.664 58.64 142.34 58.384 142.1 58.064C141.86 57.736 141.732 57.372 141.716 56.972H143.132C143.156 57.252 143.288 57.488 143.528 57.68C143.776 57.864 144.084 57.956 144.452 57.956C144.836 57.956 145.132 57.884 145.34 57.74C145.556 57.588 145.664 57.396 145.664 57.164C145.664 56.916 145.544 56.732 145.304 56.612C145.072 56.492 144.7 56.36 144.188 56.216C143.692 56.08 143.288 55.948 142.976 55.82C142.664 55.692 142.392 55.496 142.16 55.232C141.936 54.968 141.824 54.62 141.824 54.188C141.824 53.836 141.928 53.516 142.136 53.228C142.344 52.932 142.64 52.7 143.024 52.532C143.416 52.364 143.864 52.28 144.368 52.28C145.12 52.28 145.724 52.472 146.18 52.856C146.644 53.232 146.892 53.748 146.924 54.404H145.556C145.532 54.108 145.412 53.872 145.196 53.696C144.98 53.52 144.688 53.432 144.32 53.432C143.96 53.432 143.684 53.5 143.492 53.636C143.3 53.772 143.204 53.952 143.204 54.176C143.204 54.352 143.268 54.5 143.396 54.62C143.524 54.74 143.68 54.836 143.864 54.908C144.048 54.972 144.32 55.056 144.68 55.16C145.16 55.288 145.552 55.42 145.856 55.556C146.168 55.684 146.436 55.876 146.66 56.132C146.884 56.388 147 56.728 147.008 57.152C147.008 57.528 146.904 57.864 146.696 58.16C146.488 58.456 146.192 58.688 145.808 58.856C145.432 59.024 144.988 59.108 144.476 59.108ZM149.182 51.512C148.934 51.512 148.726 51.428 148.558 51.26C148.39 51.092 148.306 50.884 148.306 50.636C148.306 50.388 148.39 50.18 148.558 50.012C148.726 49.844 148.934 49.76 149.182 49.76C149.422 49.76 149.626 49.844 149.794 50.012C149.962 50.18 150.046 50.388 150.046 50.636C150.046 50.884 149.962 51.092 149.794 51.26C149.626 51.428 149.422 51.512 149.182 51.512ZM149.854 52.388V59H148.486V52.388H149.854ZM154.05 59.108C153.53 59.108 153.062 59.016 152.646 58.832C152.238 58.64 151.914 58.384 151.674 58.064C151.434 57.736 151.306 57.372 151.29 56.972H152.706C152.73 57.252 152.862 57.488 153.102 57.68C153.35 57.864 153.658 57.956 154.026 57.956C154.41 57.956 154.706 57.884 154.914 57.74C155.13 57.588 155.238 57.396 155.238 57.164C155.238 56.916 155.118 56.732 154.878 56.612C154.646 56.492 154.274 56.36 153.762 56.216C153.266 56.08 152.862 55.948 152.55 55.82C152.238 55.692 151.966 55.496 151.734 55.232C151.51 54.968 151.398 54.62 151.398 54.188C151.398 53.836 151.502 53.516 151.71 53.228C151.918 52.932 152.214 52.7 152.598 52.532C152.99 52.364 153.438 52.28 153.942 52.28C154.694 52.28 155.298 52.472 155.754 52.856C156.218 53.232 156.466 53.748 156.498 54.404H155.13C155.106 54.108 154.986 53.872 154.77 53.696C154.554 53.52 154.262 53.432 153.894 53.432C153.534 53.432 153.258 53.5 153.066 53.636C152.874 53.772 152.778 53.952 152.778 54.176C152.778 54.352 152.842 54.5 152.97 54.62C153.098 54.74 153.254 54.836 153.438 54.908C153.622 54.972 153.894 55.056 154.254 55.16C154.734 55.288 155.126 55.42 155.43 55.556C155.742 55.684 156.01 55.876 156.234 56.132C156.458 56.388 156.574 56.728 156.582 57.152C156.582 57.528 156.478 57.864 156.27 58.16C156.062 58.456 155.766 58.688 155.382 58.856C155.006 59.024 154.562 59.108 154.05 59.108ZM159.656 53.504V57.164C159.656 57.412 159.712 57.592 159.824 57.704C159.944 57.808 160.144 57.86 160.424 57.86H161.264V59H160.184C159.568 59 159.096 58.856 158.768 58.568C158.44 58.28 158.276 57.812 158.276 57.164V53.504H157.496V52.388H158.276V50.744H159.656V52.388H161.264V53.504H159.656ZM162.069 55.664C162.069 55 162.205 54.412 162.477 53.9C162.757 53.388 163.133 52.992 163.605 52.712C164.085 52.424 164.613 52.28 165.189 52.28C165.709 52.28 166.161 52.384 166.545 52.592C166.937 52.792 167.249 53.044 167.481 53.348V52.388H168.861V59H167.481V58.016C167.249 58.328 166.933 58.588 166.533 58.796C166.133 59.004 165.677 59.108 165.165 59.108C164.597 59.108 164.077 58.964 163.605 58.676C163.133 58.38 162.757 57.972 162.477 57.452C162.205 56.924 162.069 56.328 162.069 55.664ZM167.481 55.688C167.481 55.232 167.385 54.836 167.193 54.5C167.009 54.164 166.765 53.908 166.461 53.732C166.157 53.556 165.829 53.468 165.477 53.468C165.125 53.468 164.797 53.556 164.493 53.732C164.189 53.9 163.941 54.152 163.749 54.488C163.565 54.816 163.473 55.208 163.473 55.664C163.473 56.12 163.565 56.52 163.749 56.864C163.941 57.208 164.189 57.472 164.493 57.656C164.805 57.832 165.133 57.92 165.477 57.92C165.829 57.92 166.157 57.832 166.461 57.656C166.765 57.48 167.009 57.224 167.193 56.888C167.385 56.544 167.481 56.144 167.481 55.688ZM173.994 52.28C174.514 52.28 174.978 52.388 175.386 52.604C175.802 52.82 176.126 53.14 176.358 53.564C176.59 53.988 176.706 54.5 176.706 55.1V59H175.35V55.304C175.35 54.712 175.202 54.26 174.906 53.948C174.61 53.628 174.206 53.468 173.694 53.468C173.182 53.468 172.774 53.628 172.47 53.948C172.174 54.26 172.026 54.712 172.026 55.304V59H170.658V52.388H172.026V53.144C172.25 52.872 172.534 52.66 172.878 52.508C173.23 52.356 173.602 52.28 173.994 52.28ZM180.047 53.504V57.164C180.047 57.412 180.103 57.592 180.215 57.704C180.335 57.808 180.535 57.86 180.815 57.86H181.655V59H180.575C179.959 59 179.487 58.856 179.159 58.568C178.831 58.28 178.667 57.812 178.667 57.164V53.504H177.887V52.388H178.667V50.744H180.047V52.388H181.655V53.504H180.047Z" fill="black"/>
<defs>
<linearGradient id="paint0_linear_311_1122" x1="0" y1="25" x2="183" y2="25" gradientUnits="userSpaceOnUse">
<stop stop-color="#24AD18"/>
<stop offset="1" stop-color="#7DBF77"/>
</linearGradient>
</defs>
</svg>
